<svg version="1.1" xmlns="http://www.w3.org/2000/svg" x="0" y="0" width="24" height="24" viewBox="0"  xml:space="preserve"><path d="M17.5 7H4C3.4 7 3 7.4 3 8s0.4 1 1 1h13.5M15.3 9h1.8l-1.3 1.3c-0.4 0.4-0.4 1 0 1.4C16.1 11.9 16.3 12 16.6 12s0.5-0.1 0.7-0.3L21 8l-3.7-3.7c-0.4-0.4-1-0.4-1.4 0s-0.4 1 0 1.4L17.2 7h-1.8M16.5 16H4c-0.6 0-1 0.4-1 1s0.4 1 1 1h12.5M14.8 18h2.3l-1.3 1.3c-0.4 0.4-0.4 1 0 1.4C16.1 20.9 16.3 21 16.6 21s0.5-0.1 0.7-0.3L21 17l-3.7-3.7c-0.4-0.4-1-0.4-1.4 0s-0.4 1 0 1.4L17.2 16h-2.3"/></svg>