<svg baseProfile="tiny" height="24" version="1.2" viewBox="0" width="24" xml:space="preserve" xmlns="http://www.w3.org/2000/svg"><path d="M4 9h3.5c0.7 0 1.4 0.4 1.9 1 0.3-0.6 0.7-1.2 1.2-1.7C9.7 7.5 8.7 7 7.5 7H4C3.4 7 3 7.4 3 8S3.4 9 4 9zM11.7 12.1C12.2 10.5 13.9 9 15.3 9h1.8l-1.3 1.3c-0.4 0.4-0.4 1 0 1.4C16.1 11.9 16.3 12 16.6 12s0.5-0.1 0.7-0.3L21 8l-3.7-3.7c-0.4-0.4-1-0.4-1.4 0s-0.4 1 0 1.4L17.2 7h-1.8c-2.3 0-4.7 2-5.5 4.5l-0.5 1.4C8.7 14.8 7.2 16 6.5 16H4c-0.6 0-1 0.4-1 1s0.4 1 1 1h2.5c1.8 0 3.9-1.9 4.7-4.5L11.7 12.1zM15.9 13.3c-0.4 0.4-0.4 1 0 1.4L17.2 16h-2.3c-1.3 0-2.3-0.9-2.7-2.1 -0.3 0.8-0.6 1.5-1.1 2.2C11.9 17.2 13.3 18 14.8 18h2.3l-1.3 1.3c-0.4 0.4-0.4 1 0 1.4C16.1 20.9 16.3 21 16.6 21s0.5-0.1 0.7-0.3L21 17l-3.7-3.7C16.9 12.9 16.3 12.9 15.9 13.3z"/></svg>