<svg height="32" version="1.1" viewBox="0" width="32" xml:space="preserve" xmlns="http://www.w3.org/2000/svg" enable-background="new 0 0 32 32"><g transform="rotate(180,16,16)"><path d="M26.84 5.14c-0.51-0.21-1.09-0.09-1.48 0.3l-8.72 8.72V6.4c0-0.55-0.33-1.05-0.84-1.26 -0.51-0.21-1.09-0.09-1.48 0.3l-9.6 9.6C4.46 15.29 4.32 15.64 4.32 16c0 0.36 0.14 0.71 0.4 0.96l9.6 9.6c0.26 0.26 0.61 0.4 0.96 0.4 0.18 0 0.35-0.03 0.52-0.1 0.51-0.21 0.84-0.71 0.84-1.26v-7.76l8.72 8.72c0.26 0.26 0.61 0.4 0.96 0.4 0.18 0 0.35-0.03 0.52-0.1 0.51-0.21 0.84-0.71 0.84-1.26V6.4C27.68 5.85 27.35 5.35 26.84 5.14z"/></g></svg>