<svg version="1.1" xmlns="http://www.w3.org/2000/svg" x="0" y="0" width="20.9" height="20.9" viewBox="0" enable-background="new 0 0 20.85 20.85" xml:space="preserve"><path fill-rule="evenodd" clip-rule="evenodd" d="M13.7 2.4C15.2 3.9 16 5.8 16 8c0 1.7-0.5 3.2-1.4 4.5l6.3 6.3 -2.1 2.1L12.5 14.6C11.2 15.5 9.7 16 8 16c-2.2 0-4.1-0.8-5.6-2.3C0.8 12.1 0 10.2 0 8c0-2.2 0.8-4.1 2.4-5.6C3.9 0.8 5.8 0 8 0 10.2 0 12.1 0.8 13.7 2.4zM3.8 3.8C2.6 5 2 6.4 2 8c0 1.7 0.6 3.1 1.8 4.3C4.9 13.4 6.3 14 8 14c1.6 0 3.1-0.6 4.3-1.7C13.4 11.1 14 9.7 14 8c0-1.6-0.6-3-1.7-4.2C11.1 2.6 9.7 2 8 2 6.3 2 4.9 2.6 3.8 3.8z"/></svg>